<?xml version="1.0" encoding="UTF-8"?>
<svg id="Layer_1" data-name="Layer 1" xmlns="http://www.w3.org/2000/svg" viewBox="0 0 500 500">
  <defs>
    <style>
      .cls-1 {
        fill: #fff;
      }
    </style>
  </defs>
  <rect class="cls-1" width="500" height="500" rx="133.78" ry="133.78"/>
  <path d="M430.83,367.25l-1.96,5.39c-10.28,28.35-37.44,47.4-67.57,47.4-2.21,0-4.43-.11-6.62-.3-23.14-2.14-43.92-15.41-55.59-35.49l-76.83-132.25c-5.69-9.8-2.36-22.39,7.44-28.08,3.14-1.82,6.69-2.78,10.32-2.78,7.3,0,14.1,3.91,17.78,10.23l76.82,132.23c5,8.6,13.91,14.3,23.83,15.21.95.09,1.89.12,2.84.12,12.91,0,24.55-8.16,28.96-20.3l1.96-5.41c3.12-8.62,2.27-18.12-2.36-26.05l-110.4-189.05c-3.16-5.41-7.84-9.68-13.5-12.35l-3.78-1.77c-4.07-1.93-8.6-2.95-13.12-2.95-4.27,0-8.43.87-12.34,2.59l-4.14,1.8c-6.02,2.62-11.12,7.19-14.39,12.89l-108.15,188.02c-4.45,7.77-5.32,17.05-2.39,25.49l1.62,4.68c4.32,12.37,16.03,20.69,29.15,20.69,1.36,0,2.73-.09,4.07-.27l2.11-.29c9.43-1.27,17.89-6.94,22.62-15.17l20.33-35.29c3.66-6.36,10.48-10.3,17.82-10.3,3.59,0,7.12.95,10.25,2.75,4.75,2.73,8.16,7.16,9.59,12.46,1.43,5.3.7,10.84-2.04,15.6l-20.33,35.29c-11.05,19.21-30.76,32.44-52.73,35.38l-2.12.29c-3.14.43-6.36.64-9.52.64-30.63,0-57.95-19.4-68-48.29l-1.62-4.66c-6.86-19.71-4.82-41.4,5.59-59.5l108.15-188.02c7.62-13.26,19.55-23.94,33.56-30.06l4.14-1.8c9.12-3.98,18.82-6.02,28.78-6.02,10.51,0,21.1,2.37,30.63,6.86l3.77,1.77c13.23,6.23,24.12,16.19,31.47,28.81l110.41,189.05c10.8,18.49,12.8,40.65,5.5,60.8Z"/>
</svg>
